#!OML:ASF I:\Actors\actors\Patient Classification 1\Patient 1\Session 1\Subject1.ASF
:FULLY-SPECIFIED
:DEGREES
258
root -0.34207 17.4827 7.49281 5.32055 -3.39375 -8.24817
lowerback -0.101218 1.31865 6.49324
upperback -8.30548 2.18263 1.55393
thorax -8.54015 0.669553 -2.13459
lowerneck -10.4959 -3.88547 -1.45243
upperneck 28.4718 -6.72224 4.76996
head 11.1533 -2.67292 1.13003
rclavicle 9.64106e-015 -2.06736e-014
rhumerus -8.24119 22.3621 -87.4897
rradius 103.509
rwrist -4.58391
rhand 9.64167 -40.8429
rfingers 7.12502
rthumb 34.7864 -67.4485
lclavicle 9.64106e-015 -2.06736e-014
lhumerus -25.5046 -26.2684 101.497
lradius 97.3797
lwrist 23.6233
lhand -19.9424 -5.65025
lfingers 7.12502
lthumb 6.39539 24.2332
rfemur 1.70809 24.5168 27.49
rtibia 1.67658
rfoot -11.7381 -20.3575
rtoes 1.91664
lfemur 12.0959 -40.7487 -18.2688
ltibia -5.08439
lfoot -17.0166 48.8799
ltoes 6.78734
259
root -0.346706 17.4889 7.49618 5.42273 -3.70129 -7.76421
lowerback -0.1952 1.44412 6.16028
upperback -8.42037 2.31242 1.25755
thorax -8.59474 0.740954 -2.27029
lowerneck -10.4219 -3.88825 -1.21721
upperneck 28.372 -6.8047 4.88094
head 11.1003 -2.67624 1.12085
rclavicle 1.55052e-014 3.4191e-014
rhumerus -5.50373 22.9209 -86.0032
rradius 103.331
rwrist -3.67431
rhand 11.2158 -38.1167
rfingers 7.12502
rthumb 36.2786 -64.3643
lclavicle 1.55052e-014 3.4191e-014
lhumerus -25.7544 -26.8279 101.267
lradius 97.5778
lwrist 24.7282
lhand -19.8292 -5.4385
lfingers 7.12502
lthumb 6.50469 24.4416
rfemur 1.48299 24.6836 26.8301
rtibia 1.74324
rfoot -11.6775 -20.2578
rtoes 1.60103
lfemur 12.045 -40.9193 -18.8665
ltibia -5.01611
lfoot -17.4637 49.2309
ltoes 7.41938
260
root -0.348315 17.4923 7.4966 5.48608 -3.93018 -7.53485
lowerback -0.177034 1.53452 6.06234
upperback -8.52449 2.4233 1.08421
thorax -8.70612 0.789616 -2.40836
lowerneck -10.5081 -3.8881 -1.10934
upperneck 28.4261 -6.8697 5.00165
head 11.1428 -2.67698 1.13618
rclavicle 8.94531e-016 1.19271e-015
rhumerus -2.7761 23.5649 -84.2605
rradius 102.857
rwrist -2.73073
rhand 12.9293 -34.9436
rfingers 7.12502
rthumb 37.8991 -60.7702
lclavicle 8.94531e-016 1.19271e-015
lhumerus -25.9954 -27.3935 101.046
lradius 97.8617
lwrist 25.6823
lhand -19.8678 -5.41692
lfingers 7.12502
lthumb 6.46744 24.4643
rfemur 1.36017 24.892 26.515
rtibia 1.77261
rfoot -11.6841 -20.2318
rtoes 1.75435
lfemur 11.9915 -40.9184 -19.1282
ltibia -4.96313
lfoot -17.8592 49.351
ltoes 7.90419
261
root -0.345388 17.4922 7.49517 5.5033 -4.00009 -7.62498
lowerback -0.0553347 1.59775 6.34067
upperback -8.62295 2.52959 0.98989
thorax -8.86799 0.809592 -2.67522
lowerneck -10.6534 -3.93321 -1.11678
upperneck 28.5524 -6.99247 5.16123
head 11.2333 -2.70838 1.17677
rclavicle 1.44119e-014 3.57812e-015
rhumerus -0.0769374 24.2842 -82.2365
rradius 102.134
rwrist -1.35508
rhand 15.1753 -31.4537
rfingers 7.12502
rthumb 40.0167 -56.6747
lclavicle 1.44119e-014 3.57812e-015
lhumerus -26.2259 -27.8619 100.933
lradius 98.1278
lwrist 26.3561
lhand -19.4991 -5.47246
lfingers 7.12502
lthumb 6.8234 24.3976
rfemur 1.34936 25.0155 26.6191
rtibia 1.78105
rfoot -11.6652 -20.2759
rtoes 1.69663
lfemur 11.97 -40.9029 -19.0216
ltibia -4.91682
lfoot -18.2208 49.3472
ltoes 8.25427
262
root -0.340452 17.4926 7.49389 5.52531 -4.03476 -7.65981
lowerback 0.00529275 1.65272 6.52577
upperback -8.70394 2.61645 0.916193
thorax -8.97856 0.829479 -2.86535
lowerneck -10.7784 -4.05705 -1.2239
upperneck 28.6112 -7.20677 5.33496
head 11.3024 -2.7924 1.22751
rclavicle 2.55438e-014 -1.59028e-015
rhumerus 2.69102 25.0434 -79.9034
rradius 101.267
rwrist 0.653642
rhand 18.2429 -27.744
rfingers 7.12502
rthumb 42.8949 -52.0269
lclavicle 2.55438e-014 -1.59028e-015
lhumerus -26.3468 -28.217 100.875
lradius 98.2841
lwrist 26.9273
lhand -18.7778 -5.28028
lfingers 7.12502
lthumb 7.51958 24.5661
rfemur 1.29877 24.9416 26.6077
rtibia 1.78669
rfoot -11.6074 -20.1852
rtoes 1.46784
lfemur 11.9297 -40.9595 -18.9914
ltibia -4.87035
lfoot -18.3746 49.4107
ltoes 8.40727
263
root -0.33632 17.4931 7.49256 5.54489 -4.124 -7.63989
lowerback -0.0174041 1.74401 6.61124
upperback -8.72451 2.73826 0.857929
thorax -8.9712 0.880104 -2.98243
lowerneck -10.8145 -4.07133 -1.1131
upperneck 28.5556 -7.27676 5.43057
head 11.292 -2.80093 1.23334
rclavicle -3.27995e-015 -9.54166e-015
rhumerus 5.52461 26.3595 -77.1459
rradius 100.408
rwrist 0.910852
rhand 18.3605 -25.3522
rfingers 7.12502
rthumb 43.0048 -49.5964
lclavicle -3.27995e-015 -9.54166e-015
lhumerus -26.3459 -28.6785 100.781
lradius 98.434
lwrist 27.6129
lhand -18.2367 -4.97399
lfingers 7.12502
lthumb 8.04185 24.853
rfemur 1.24194 24.8488 26.5194
rtibia 1.77312
rfoot -11.5612 -20.0219
rtoes 1.44228
lfemur 11.918 -40.9748 -19.0412
ltibia -4.86181
lfoot -18.42 49.4877
ltoes 8.57472
